<?xml version="1.0" standalone="no"?>
<!DOCTYPE svg PUBLIC "-//W3C//DTD SVG 20010904//EN"
 "http://www.w3.org/TR/2001/REC-SVG-20010904/DTD/svg10.dtd">
<svg version="1.0" xmlns="http://www.w3.org/2000/svg"
 width="512.000000pt" height="512.000000pt" viewBox="0 0 512.000000 512.000000"
 preserveAspectRatio="xMidYMid meet">
<metadata>
Created by potrace 1.11, written by Peter Selinger 2001-2013
</metadata>
<g transform="translate(0.000000,512.000000) scale(0.100000,-0.100000)"
fill="#000000" stroke="none">
<path d="M2195 4729 c-159 -38 -301 -70 -315 -73 -14 -2 -162 -37 -330 -76
-168 -39 -352 -82 -410 -95 -58 -13 -143 -33 -190 -44 -47 -11 -97 -22 -110
-25 -111 -22 -506 -118 -541 -132 -170 -67 -288 -234 -295 -417 -4 -102 7
-153 51 -242 51 -104 141 -188 243 -228 36 -14 194 -55 275 -71 77 -15 213
-49 219 -55 4 -4 8 -326 8 -717 1 -658 2 -715 19 -771 82 -270 338 -454 786
-566 90 -23 245 -51 348 -63 20 -2 56 -6 78 -9 227 -27 931 -27 1064 0 11 2
47 7 80 10 82 9 264 42 360 66 451 113 733 336 779 614 2 17 5 347 5 735 l1
705 103 23 c56 13 109 25 117 27 8 2 69 15 135 30 183 42 270 92 351 203 61
82 86 161 88 267 1 99 -3 128 -30 195 -34 87 -97 164 -179 219 -73 50 -80 52
-575 165 -58 14 -165 39 -238 56 -74 17 -141 33 -150 35 -39 8 -213 47 -292
66 -47 11 -113 27 -147 35 -35 7 -91 21 -125 28 -664 154 -772 177 -831 175
-34 -1 -192 -33 -352 -70z m561 -290 c99 -22 186 -42 194 -44 8 -2 65 -15 125
-29 61 -14 189 -43 285 -66 96 -23 234 -55 305 -71 161 -37 165 -38 190 -43
11 -2 43 -10 70 -16 28 -6 57 -13 65 -15 8 -1 33 -8 55 -13 22 -6 51 -13 65
-16 24 -5 60 -13 240 -54 385 -88 384 -88 427 -151 17 -24 21 -45 20 -86 -3
-57 -22 -93 -68 -127 -19 -13 -214 -64 -397 -103 -9 -2 -145 -33 -302 -70
-157 -37 -296 -69 -310 -71 -14 -3 -61 -14 -105 -24 -44 -10 -296 -69 -560
-130 -538 -125 -478 -119 -714 -64 -80 19 -263 61 -406 94 -212 49 -737 170
-1350 311 -171 39 -191 47 -223 83 -57 65 -51 168 12 224 26 22 58 35 128 52
141 32 398 91 438 100 19 4 175 40 345 80 171 39 317 73 325 75 40 9 227 52
555 129 198 46 372 85 386 85 15 1 107 -17 205 -40z m-1161 -1349 c242 -56
508 -117 590 -136 290 -67 315 -72 374 -72 64 0 78 3 351 66 96 22 285 66 420
97 135 31 252 58 260 60 96 22 212 49 285 65 50 12 98 23 108 26 16 5 17 -30
17 -644 0 -713 2 -684 -62 -753 -158 -170 -565 -305 -1048 -347 -110 -9 -539
-9 -655 1 -110 9 -231 23 -265 32 -3 0 -27 4 -55 9 -90 14 -283 64 -372 97
-157 57 -280 127 -350 197 -77 78 -73 33 -73 762 0 616 1 651 18 646 9 -3 215
-51 457 -106z"/>
<path d="M4735 3186 c-41 -18 -73 -56 -85 -97 -6 -21 -10 -322 -10 -785 l0
-752 23 -33 c12 -19 37 -44 55 -56 72 -48 194 -9 228 73 12 28 14 163 14 793
l0 759 -23 32 c-12 18 -34 42 -48 52 -33 25 -115 32 -154 14z"/>
<path d="M4745 1264 c-97 -50 -203 -264 -251 -503 -38 -193 22 -339 171 -411
72 -35 199 -35 270 0 104 51 171 149 182 264 10 111 -48 333 -127 485 -46 88
-81 130 -130 160 -42 25 -74 26 -115 5z"/>
</g>
</svg>
